<svg id="Layer_2" data-name="Layer 2" xmlns="http://www.w3.org/2000/svg" viewBox="0 0 26 26"><defs><style>.cls-1{fill:#512d6d;}.cls-2{fill:#fff;}</style></defs><title>question-icon-2</title><circle id="Circle" class="cls-1" cx="13" cy="13" r="13"/><g id="QM"><rect class="cls-2" x="10.954" y="18.091" width="3.651" height="3.48" rx="0.2" ry="0.2"/><path class="cls-2" d="M13.359,4.429A6.361,6.361,0,0,0,8.673,6.1,5.081,5.081,0,0,0,7.249,9.079a0.2,0.2,0,0,0,.176.237l3.251,0.342H10.7a0.2,0.2,0,0,0,.2-0.169A3.352,3.352,0,0,1,11.3,8.12a2.03,2.03,0,0,1,1.817-.8c0.967,0,2.169.269,2.169,1.549a1.308,1.308,0,0,1-.312.933,4.213,4.213,0,0,1-1.037.874,6.012,6.012,0,0,0-1.893,1.449,3.927,3.927,0,0,0-.865,2.695l0,0.071c-0.016.528-.018,0.579-0.053,0.955a0.2,0.2,0,0,0,.2.219h2.947a0.2,0.2,0,0,0,.2-0.222,7.17,7.17,0,0,1-.056-0.758,2.259,2.259,0,0,1,.311-1.242,3.954,3.954,0,0,1,1.4-1.155,7.557,7.557,0,0,0,2.049-1.7A3.711,3.711,0,0,0,18.9,8.66C18.9,6.09,16.726,4.429,13.359,4.429Z"/></g></svg>